<svg width="420" height="358" viewBox="0 0 420 358" fill="none" xmlns="http://www.w3.org/2000/svg">
<path id="upload" d="M393.75 190.188V279.688C393.75 285.622 390.984 291.313 386.062 295.509C381.139 299.705 374.462 302.063 367.5 302.063H52.5C45.5381 302.063 38.8613 299.705 33.9384 295.509C29.0156 291.313 26.25 285.622 26.25 279.688V190.188C26.25 184.253 29.0156 178.562 33.9384 174.366C38.8613 170.17 45.5381 167.813 52.5 167.813H131.25C134.731 167.813 138.069 168.991 140.531 171.089C142.992 173.187 144.375 176.033 144.375 179C144.375 181.967 142.992 184.813 140.531 186.911C138.069 189.009 134.731 190.188 131.25 190.188H52.5V279.688H367.5V190.188H288.75C285.269 190.188 281.931 189.009 279.469 186.911C277.008 184.813 275.625 181.967 275.625 179C275.625 176.033 277.008 173.187 279.469 171.089C281.931 168.991 285.269 167.813 288.75 167.813H367.5C374.462 167.813 381.139 170.17 386.062 174.366C390.984 178.562 393.75 184.253 393.75 190.188ZM140.536 108.603L196.875 60.5663V179C196.875 181.967 198.258 184.813 200.719 186.911C203.181 189.009 206.519 190.188 210 190.188C213.481 190.188 216.819 189.009 219.281 186.911C221.742 184.813 223.125 181.967 223.125 179V60.5663L279.464 108.603C281.927 110.702 285.267 111.881 288.75 111.881C292.233 111.881 295.573 110.702 298.036 108.603C300.499 106.503 301.882 103.656 301.882 100.688C301.882 97.7188 300.499 94.8716 298.036 92.7724L219.286 25.6474C218.067 24.6072 216.619 23.782 215.026 23.219C213.433 22.656 211.725 22.3662 210 22.3662C208.275 22.3662 206.567 22.656 204.974 23.219C203.381 23.782 201.933 24.6072 200.714 25.6474L121.964 92.7724C119.501 94.8716 118.118 97.7188 118.118 100.688C118.118 103.656 119.501 106.503 121.964 108.603C124.427 110.702 127.767 111.881 131.25 111.881C134.733 111.881 138.073 110.702 140.536 108.603ZM328.125 234.938C328.125 231.618 326.97 228.374 324.807 225.614C322.644 222.855 319.569 220.704 315.972 219.434C312.374 218.164 308.416 217.831 304.597 218.479C300.778 219.126 297.27 220.724 294.516 223.071C291.763 225.418 289.888 228.408 289.128 231.664C288.369 234.919 288.759 238.293 290.249 241.359C291.739 244.426 294.262 247.047 297.5 248.891C300.737 250.735 304.544 251.719 308.438 251.719C313.659 251.719 318.667 249.951 322.359 246.804C326.051 243.657 328.125 239.388 328.125 234.938Z" fill="#000"/>
</svg>
