<svg width="33" height="33" viewBox="0 0 33 33" fill="none" xmlns="http://www.w3.org/2000/svg">
<path d="M25.9935 24.3404C26.0864 24.4333 26.1601 24.5436 26.2104 24.665C26.2606 24.7864 26.2865 24.9165 26.2865 25.0479C26.2865 25.1793 26.2606 25.3094 26.2104 25.4308C26.1601 25.5522 26.0864 25.6625 25.9935 25.7554C25.9005 25.8483 25.7902 25.922 25.6689 25.9723C25.5475 26.0226 25.4174 26.0485 25.286 26.0485C25.1546 26.0485 25.0245 26.0226 24.9031 25.9723C24.7817 25.922 24.6714 25.8483 24.5785 25.7554L16.286 17.4617L7.99346 25.7554C7.80582 25.9431 7.55132 26.0485 7.28596 26.0485C7.02059 26.0485 6.7661 25.9431 6.57846 25.7554C6.39082 25.5678 6.2854 25.3133 6.2854 25.0479C6.2854 24.7826 6.39082 24.5281 6.57846 24.3404L14.8722 16.0479L6.57846 7.75542C6.39082 7.56778 6.2854 7.31328 6.2854 7.04792C6.2854 6.78256 6.39082 6.52806 6.57846 6.34042C6.7661 6.15278 7.02059 6.04736 7.28596 6.04736C7.55132 6.04736 7.80582 6.15278 7.99346 6.34042L16.286 14.6342L24.5785 6.34042C24.7661 6.15278 25.0206 6.04736 25.286 6.04736C25.5513 6.04736 25.8058 6.15278 25.9935 6.34042C26.1811 6.52806 26.2865 6.78256 26.2865 7.04792C26.2865 7.31328 26.1811 7.56778 25.9935 7.75542L17.6997 16.0479L25.9935 24.3404Z" fill="black"/>
</svg>
