<svg width="33" height="33" viewBox="0 0 33 33" fill="none" xmlns="http://www.w3.org/2000/svg">
<path d="M28.2859 16.0479C28.2859 16.3131 28.1805 16.5674 27.993 16.755C27.8055 16.9425 27.5511 17.0479 27.2859 17.0479H5.28589C5.02067 17.0479 4.76632 16.9425 4.57878 16.755C4.39125 16.5674 4.28589 16.3131 4.28589 16.0479C4.28589 15.7826 4.39125 15.5283 4.57878 15.3407C4.76632 15.1532 5.02067 15.0479 5.28589 15.0479H27.2859C27.5511 15.0479 27.8055 15.1532 27.993 15.3407C28.1805 15.5283 28.2859 15.7826 28.2859 16.0479ZM5.28589 9.04785H27.2859C27.5511 9.04785 27.8055 8.94249 27.993 8.75496C28.1805 8.56742 28.2859 8.31307 28.2859 8.04785C28.2859 7.78264 28.1805 7.52828 27.993 7.34074C27.8055 7.15321 27.5511 7.04785 27.2859 7.04785H5.28589C5.02067 7.04785 4.76632 7.15321 4.57878 7.34074C4.39125 7.52828 4.28589 7.78264 4.28589 8.04785C4.28589 8.31307 4.39125 8.56742 4.57878 8.75496C4.76632 8.94249 5.02067 9.04785 5.28589 9.04785ZM27.2859 23.0479H5.28589C5.02067 23.0479 4.76632 23.1532 4.57878 23.3407C4.39125 23.5283 4.28589 23.7826 4.28589 24.0479C4.28589 24.3131 4.39125 24.5674 4.57878 24.755C4.76632 24.9425 5.02067 25.0479 5.28589 25.0479H27.2859C27.5511 25.0479 27.8055 24.9425 27.993 24.755C28.1805 24.5674 28.2859 24.3131 28.2859 24.0479C28.2859 23.7826 28.1805 23.5283 27.993 23.3407C27.8055 23.1532 27.5511 23.0479 27.2859 23.0479Z" fill="black"/>
</svg>
